<svg id="Calque_1" data-name="Calque 1" xmlns="http://www.w3.org/2000/svg" viewBox="0 0 1245.62 136.01"><defs><style>.cls-1{fill:#b31300;}.cls-2{fill:#fff;}</style></defs><title>Sans titre - 1</title><path class="cls-1" d="M1208,792.51c11.26,10.4,18.79,22.69,28.62,34.62-6.29.1-12.11.22-17.93.26-6,.05-12,0-18,0-3.91.05-6.36-3.21-7.15-5.53-2.26-6.55-9.26-9.42-11.23-16.12-.68-2.33-3.7-4-5.35-5.62h-23.88v26.77h-31.95c-1.94-11.11-2.53-87.9-.87-129.59,23.32,0,46.71-.66,70,.34a51.48,51.48,0,0,1,25.33,8.52c7.63,5,11.78,13.2,14.73,21.44,6.3,17.55,3.39,34.52-5.42,50.61C1221.37,784.75,1214.77,788,1208,792.51Z" transform="translate(-837.36 -694.55)"/><path class="cls-1" d="M1382.72,819.1c-4.34-6.67-8.2-13.73-15.28-19.08h-23.37v27.12h-30V697.33c22.22,0,44.34-1.44,66.17.44,18.75,1.61,35,9.78,42.55,29.54a21.85,21.85,0,0,1,1.44,7.65c.17,6-.6,12,.19,17.92,1.93,14.49-8.41,29.66-22.53,37.68,2,3,1.55,7.49,5.79,9.17,11.35,5.45,17.53,14.73,22,28.3-14.57.5-27,1.68-39.61,1.77C1384.87,828.1,1383.9,823.53,1382.72,819.1Z" transform="translate(-837.36 -694.55)"/><path class="cls-1" d="M1615.2,719.47c13.81,17.06,30.84,31,46.78,48.66V697.7h32.88V827h-15c-22.71-22.21-44.33-46.33-70.16-66-3.15,16.34-.58,32.85-1.42,49.26-.29,5.48.74,11-1.15,17.21-10,2.24-20.27,1.68-31.54.23-.93-15.06-.41-29.7-.4-44.31,0-28.68-3-57.42,1.3-86h2.77c10.16-6.61,16.82-.16,23.62,6.2C1607.83,708.2,1612.2,713.28,1615.2,719.47Z" transform="translate(-837.36 -694.55)"/><path class="cls-1" d="M959,720.56c-6,9.31-16.42,13.15-23.27,21-10.09-10.09-10-10.49-18.27-12.62-12.49-3.2-25-2.37-35.28,5.78-6.42,5.08-9.73,13.39-11.24,21.42-1.73,9.28.89,18.29,5.29,26.73,3.67,7,9.71,11,16.71,14.13,11.5,5.17,25.43,3.16,34.26-5.34,1.67-1.59,3.09-3.5,4.94-4.82,2.35-1.67,5.4-2,7.37.17,6,6.61,13,12.09,20.9,17.49A57.92,57.92,0,0,1,926.72,827c-7.5,1.89-15.31,4.32-23.66,3.33-16.92-2-32.06-7.11-44.7-19.22-9.14-8.75-16.25-18.25-19.59-30.7-2.44-9.08-.36-18.11-1.29-27.11-.8-7.81,2.56-14.83,5.86-21.07,6.73-12.72,17.6-21.82,30.52-28.44,8.34-4.27,16.6-7.57,26.39-6.62,9.3.9,18.72-.62,27.93,2.8,9.53,3.54,18.5,7.65,25.5,15.26C955.24,716.93,956.93,718.5,959,720.56Z" transform="translate(-837.36 -694.55)"/><path class="cls-1" d="M1895.72,697.57h14.7c5.15,12.92,11.74,25,17.16,37.44,11.9,27.4,24.86,54.28,37.81,81.18,1.09,2.26.8,4.3,1.38,6.37.4,1.43,1.61,2.65,3,4.84-10.13,0-19.27-.12-28.4.06-4.25.09-6.49-1.71-8-5.61-4.45-11.53-9.2-23.05-14.3-34.18-5.67-12.38-10-25.48-17.44-37.72-11.18,25.73-22.28,51.25-33.55,77.18h-33.69c8.13-19,17.21-37.08,25.62-55.5,5.69-12.45,12.23-24.48,17.66-37,4.59-10.56,8.94-21.2,14-31.55C1892.83,701,1894.41,699.62,1895.72,697.57Z" transform="translate(-837.36 -694.55)"/><path class="cls-1" d="M1105.35,826.87h-34.7L1036.92,750c-12.76,26.95-22.65,52.55-34.26,77.08H970.35c2.61-13.17,9.67-23.91,15-35.32,8.29-17.76,17.81-35,25-53.19,5.53-13.94,13.29-26.71,19-40.88h14.5c3.21,6.11,6.74,12,9.48,18.24,8.23,18.72,17.39,37,25.58,55.72,5.3,12.13,11.66,23.7,16.87,35.84C1098.41,813.65,1099.73,820.34,1105.35,826.87Z" transform="translate(-837.36 -694.55)"/><path class="cls-1" d="M1787.24,827.17H1754V725.63c-7-1.29-13.8-.45-20.5-.59s-13.69,0-21,0V697.39c18.19-.14,36.88,0,55.58-.06s37.63,0,56.93,0v27.16c-5.63,1.17-12,.33-18.24.48s-12.76,0-19.57,0Z" transform="translate(-837.36 -694.55)"/><path class="cls-1" d="M2019.25,697.81V799.73h46.95c2.76,0,5.53-.08,8.28,0,6,.21,8.23,2.16,8.4,7.78.19,6.36,0,12.74,0,19.48h-96.19V697.81Z" transform="translate(-837.36 -694.55)"/><path class="cls-1" d="M1546,774.82v-2.77c1.35-.1,2.57.18,2.19,1.84C1548.1,774.34,1546.78,774.52,1546,774.82Z" transform="translate(-837.36 -694.55)"/><path class="cls-2" d="M1153,771.87v-46.5c10.55,0,20.87-1.54,31.57,2,5.45,1.83,8.32,5.6,11.3,9.12,2.56,3,4.69,8.37,3.8,11.89-1.79,7.12-3,14.35-11.93,18.65C1176.05,772.69,1164.81,771.83,1153,771.87Z" transform="translate(-837.36 -694.55)"/><path class="cls-2" d="M1344,747.82c0-5.52-.11-11.05,0-16.57.1-3.65,2.3-6.1,5.82-6.16,9.36-.15,18.76-.73,27.88,2.63,15.94,5.88,16.22,22.14,9.83,32.35-5,7.94-13.29,11.33-22.55,11.94-4.13.27-8.29.15-12.43,0-6.62-.2-8.39-2-8.56-9C1343.87,758,1344,752.89,1344,747.82Z" transform="translate(-837.36 -694.55)"/><path class="cls-1" d="M1543.24,750.34V774.4h-87.87V750.34Z" transform="translate(-837.36 -694.55)"/><rect class="cls-1" x="605.9" y="102.47" width="112.09" height="32.79"/><rect class="cls-1" x="605.9" y="3.26" width="112.09" height="32.79"/></svg>